<?xml version="1.0" encoding="UTF-8"?>
<svg width="50px" height="50px" viewBox="0 0 50 50" version="1.1" xmlns="http://www.w3.org/2000/svg" xmlns:xlink="http://www.w3.org/1999/xlink">
    <!-- Generator: Sketch 53.2 (72643) - https://sketchapp.com -->
    <title>HP_White_RGB</title>
    <desc>Created with Sketch.</desc>
    <g id="Page-1" stroke="none" stroke-width="1" fill="none" fill-rule="evenodd">
        <g id="hp_mediamonks_logo-copy-2" transform="translate(-7.000000, -7.000000)" fill="#FFFFFF" fill-rule="nonzero">
            <g id="HP_White_RGB" transform="translate(7.000000, 7.000000)">
                <path d="M25,50 C24.7685185,50 24.4984568,50 24.2669753,50 L29.3595679,35.9567901 L36.3811728,35.9567901 C37.6157407,35.9567901 38.9660494,34.992284 39.3904321,33.8348765 L44.9459877,18.595679 C45.8719136,16.087963 44.4058642,14.0432099 41.7824074,14.0432099 L32.0216049,14.0432099 L23.8425926,36.5740741 L23.8425926,36.5740741 L19.212963,49.3441358 C8.21759259,46.720679 0,36.8441358 0,25 C0,13.5416667 7.71604938,3.85802469 18.2484568,0.925925926 L13.4645062,14.0817901 L13.4645062,14.0817901 L5.51697531,35.9567901 L10.8024691,35.9567901 L17.5540123,17.3611111 L21.5277778,17.3611111 L14.7762346,35.9567901 L20.0617284,35.9567901 L26.3888889,18.6342593 C27.3148148,16.1265432 25.8873457,14.0817901 23.2253086,14.0817901 L18.75,14.0817901 L23.8811728,0.0385802469 C24.2669753,0.0385802469 24.6141975,0 25,0 C38.8117284,0 50,11.1882716 50,25 C50,38.8117284 38.8117284,50 25,50 Z M40.1234568,17.3611111 L36.1496914,17.3611111 L30.5555556,32.6774691 L34.529321,32.6774691 L40.1234568,17.3611111 Z" id="Shape"></path>
            </g>
        </g>
    </g>
</svg>